<?xml version="1.0" encoding="UTF-8"?>
<!DOCTYPE svg PUBLIC "-//W3C//DTD SVG 1.1//EN" "http://www.w3.org/Graphics/SVG/1.1/DTD/svg11.dtd">
<svg xmlns="http://www.w3.org/2000/svg" version="1.1" width="2804px" height="620px" style="shape-rendering:geometricPrecision; text-rendering:geometricPrecision; image-rendering:optimizeQuality; fill-rule:evenodd; clip-rule:evenodd" xmlns:xlink="http://www.w3.org/1999/xlink">
<g><path style="opacity:0.976" fill="#333333" d="M 192.5,-0.5 C 195.5,-0.5 198.5,-0.5 201.5,-0.5C 212.455,3.57559 223.789,6.74226 235.5,9C 259.006,13.5706 282.672,16.5706 306.5,18C 309.093,15.2338 311.093,12.0672 312.5,8.5C 313.328,7.58529 314.328,6.91862 315.5,6.5C 318.837,9.97329 321.837,13.8066 324.5,18C 348.324,16.5715 371.991,13.5715 395.5,9C 407.2,6.74476 418.533,3.57809 429.5,-0.5C 432.5,-0.5 435.5,-0.5 438.5,-0.5C 440.036,1.91628 441.036,4.58294 441.5,7.5C 441.355,11.1241 439.688,13.7908 436.5,15.5C 408.504,33.8335 380.171,51.6668 351.5,69C 339.592,70.1475 327.592,70.6475 315.5,70.5C 304.167,70.3333 292.833,70.1667 281.5,70C 250.605,51.9698 220.438,32.8032 191,12.5C 190.042,10.8008 189.542,8.96745 189.5,7C 189.821,4.19549 190.821,1.69549 192.5,-0.5 Z"/></g>
<g><path style="opacity:0.99" fill="#333333" d="M 1933.5,74.5 C 1946.83,74.5 1960.17,74.5 1973.5,74.5C 1973.02,169.19 1973.52,263.857 1975,358.5C 1976.02,365.856 1980.19,370.356 1987.5,372C 1993.87,372.608 2000.21,372.275 2006.5,371C 2012.81,369.338 2019.15,367.838 2025.5,366.5C 2027.35,377.575 2029.18,388.575 2031,399.5C 2009.83,408.096 1988,410.596 1965.5,407C 1947.94,401.436 1937.44,389.603 1934,371.5C 1933.5,272.501 1933.33,173.501 1933.5,74.5 Z"/></g>
<g><path style="opacity:0.987" fill="#333333" d="M 317.5,619.5 C 316.167,619.5 314.833,619.5 313.5,619.5C 303.146,606.984 296.312,592.651 293,576.5C 287.829,554.461 284.829,532.128 284,509.5C 282.902,442.502 281.902,375.502 281,308.5C 275.461,236.222 276.961,163.889 285.5,91.5C 305.5,91.5 325.5,91.5 345.5,91.5C 350.667,135.662 353.334,179.995 353.5,224.5C 351.902,265.162 350.402,305.828 349,346.5C 349.036,404.855 348.036,463.188 346,521.5C 344.731,549.456 339.064,576.456 329,602.5C 325.652,608.541 321.818,614.208 317.5,619.5 Z"/></g>
<g><path style="opacity:0.948" fill="#333333" d="M 255.5,128.5 C 256.979,132.382 256.645,136.216 254.5,140C 217.883,154.623 188.383,178.123 166,210.5C 160.653,219.865 155.319,229.199 150,238.5C 143.833,237.522 137.666,236.356 131.5,235C 150.191,196.975 177.858,167.308 214.5,146C 228.004,139.576 241.671,133.742 255.5,128.5 Z"/></g>
<g><path style="opacity:0.983" fill="#333333" d="M 1042.5,164.5 C 1096.24,164.798 1134.41,189.132 1157,237.5C 1174.64,285.675 1167.98,330.009 1137,370.5C 1105.18,404.175 1066.35,416.675 1020.5,408C 971.709,394.876 941.543,363.709 930,314.5C 922.178,272.448 931.845,235.115 959,202.5C 981.869,178.814 1009.7,166.147 1042.5,164.5 Z M 1036.5,200.5 C 1077.58,199.414 1105.41,218.081 1120,256.5C 1131.54,295.842 1122.71,329.675 1093.5,358C 1065.57,378.694 1036.57,380.361 1006.5,363C 975.886,338.807 964.053,307.307 971,268.5C 977.036,241.146 992.203,220.646 1016.5,207C 1023.12,204.293 1029.79,202.126 1036.5,200.5 Z"/></g>
<g><path style="opacity:0.985" fill="#333333" d="M 1765.5,164.5 C 1815.94,165.445 1851.77,188.778 1873,234.5C 1892.24,284.483 1886.24,331.15 1855,374.5C 1821.82,410.233 1782.32,419.399 1736.5,402C 1717.48,392.31 1702.31,378.477 1691,360.5C 1690.5,407.832 1690.33,455.165 1690.5,502.5C 1677.17,502.5 1663.83,502.5 1650.5,502.5C 1650.5,391.167 1650.5,279.833 1650.5,168.5C 1662.5,168.5 1674.5,168.5 1686.5,168.5C 1686.33,182.837 1686.5,197.171 1687,211.5C 1705.91,183.633 1732.07,167.967 1765.5,164.5 Z M 1752.5,200.5 C 1796.48,199.973 1825.31,220.64 1839,262.5C 1847.71,300.168 1838.21,332.335 1810.5,359C 1781.42,380.482 1752.08,380.815 1722.5,360C 1708.62,349.123 1698.12,335.623 1691,319.5C 1690.33,297.167 1690.33,274.833 1691,252.5C 1696.61,234.885 1707.44,221.385 1723.5,212C 1732.6,206.473 1742.26,202.64 1752.5,200.5 Z"/></g>
<g><path style="opacity:0.982" fill="#333333" d="M 2145.5,164.5 C 2172.51,163.162 2196.84,170.328 2218.5,186C 2235.89,201.61 2245.72,221.11 2248,244.5C 2248.33,283.167 2248.67,321.833 2249,360.5C 2248.65,368.647 2252.48,373.314 2260.5,374.5C 2261.5,385.146 2261.83,395.813 2261.5,406.5C 2230.28,414.181 2214.12,402.181 2213,370.5C 2192.15,393.841 2165.99,407.007 2134.5,410C 2104.09,413.311 2078.59,403.811 2058,381.5C 2039.95,356.444 2037.95,330.111 2052,302.5C 2065.93,283.77 2084.43,271.937 2107.5,267C 2141.23,260.697 2174.57,262.53 2207.5,272.5C 2209.4,257.803 2207.9,243.469 2203,229.5C 2194.86,213.005 2181.69,203.172 2163.5,200C 2141.57,196.467 2120.57,199.467 2100.5,209C 2090.84,213.828 2081.51,219.161 2072.5,225C 2071.55,225.617 2070.72,225.451 2070,224.5C 2065.67,215.833 2061.33,207.167 2057,198.5C 2056.25,197.365 2056.42,196.365 2057.5,195.5C 2084.12,177.178 2113.45,166.845 2145.5,164.5 Z M 2144.5,289.5 C 2166.44,289.713 2187.78,293.379 2208.5,300.5C 2213.78,325.409 2206.78,345.909 2187.5,362C 2162.11,380.456 2134.77,384.122 2105.5,373C 2081.59,357.283 2076.09,336.783 2089,311.5C 2096.81,303.007 2106.31,297.174 2117.5,294C 2126.51,291.627 2135.51,290.127 2144.5,289.5 Z"/></g>
<g><path style="opacity:0.988" fill="#333333" d="M 2441.5,164.5 C 2477.8,162.712 2501.3,179.045 2512,213.5C 2516.05,229.575 2518.05,245.909 2518,262.5C 2518.5,310.166 2518.67,357.832 2518.5,405.5C 2504.83,405.5 2491.17,405.5 2477.5,405.5C 2477.67,358.165 2477.5,310.832 2477,263.5C 2476.81,249.195 2473.81,235.528 2468,222.5C 2459.72,208.107 2447.22,201.107 2430.5,201.5C 2395.99,205.511 2371.15,223.177 2356,254.5C 2355,257.5 2354,260.5 2353,263.5C 2352.5,310.832 2352.33,358.165 2352.5,405.5C 2339.17,405.5 2325.83,405.5 2312.5,405.5C 2312.5,326.5 2312.5,247.5 2312.5,168.5C 2324.83,168.5 2337.17,168.5 2349.5,168.5C 2349.33,184.503 2349.5,200.503 2350,216.5C 2372.07,184.542 2402.57,167.209 2441.5,164.5 Z"/></g>
<g><path style="opacity:0.981" fill="#333333" d="M 2803.5,280.5 C 2803.5,284.167 2803.5,287.833 2803.5,291.5C 2802.52,294.625 2802.19,297.958 2802.5,301.5C 2737.17,301.5 2671.83,301.5 2606.5,301.5C 2610.36,339.173 2630.02,364.34 2665.5,377C 2692.08,383.017 2716.08,377.684 2737.5,361C 2743.83,354.685 2749.33,347.851 2754,340.5C 2765.16,343.609 2776.32,346.609 2787.5,349.5C 2779.72,368.127 2767.05,382.627 2749.5,393C 2712.77,413.17 2674.77,415.837 2635.5,401C 2583.81,374.482 2559.98,331.982 2564,273.5C 2570.26,226.115 2595.09,192.615 2638.5,173C 2674.88,160.088 2710.21,162.421 2744.5,180C 2780.69,203.713 2800.36,237.213 2803.5,280.5 Z M 2678.5,195.5 C 2715.38,195.249 2741.88,211.582 2758,244.5C 2761.74,253.473 2763.91,262.806 2764.5,272.5C 2711.5,272.5 2658.5,272.5 2605.5,272.5C 2609.09,234.414 2629.09,209.581 2665.5,198C 2669.99,197.24 2674.32,196.406 2678.5,195.5 Z"/></g>
<g><path style="opacity:0.986" fill="#333333" d="M 1591.5,167.5 C 1598.17,167.5 1604.83,167.5 1611.5,167.5C 1611.5,179.833 1611.5,192.167 1611.5,204.5C 1574.94,205.016 1547.77,221.016 1530,252.5C 1529,255.167 1528,257.833 1527,260.5C 1526.5,308.832 1526.33,357.166 1526.5,405.5C 1513.17,405.5 1499.83,405.5 1486.5,405.5C 1486.5,326.5 1486.5,247.5 1486.5,168.5C 1499.17,168.5 1511.83,168.5 1524.5,168.5C 1524.33,185.837 1524.5,203.17 1525,220.5C 1539.7,193.281 1561.87,175.614 1591.5,167.5 Z"/></g>
<g><path style="opacity:0.98" fill="#333333" d="M 678.5,168.5 C 692.849,168.167 707.182,168.501 721.5,169.5C 747.64,233.923 773.974,298.257 800.5,362.5C 824.625,298.292 848.459,233.959 872,169.5C 885.437,168.178 898.937,168.178 912.5,169.5C 872.961,272.285 833.128,374.951 793,477.5C 776.593,501.607 753.76,511.44 724.5,507C 721.487,506.498 718.487,505.998 715.5,505.5C 715.5,493.5 715.5,481.5 715.5,469.5C 722.758,469.702 729.925,470.368 737,471.5C 743.618,470.856 748.951,467.856 753,462.5C 763.13,444.24 771.63,425.24 778.5,405.5C 744.768,326.627 711.434,247.627 678.5,168.5 Z"/></g>
<g><path style="opacity:0.974" fill="#333333" d="M 1211.5,168.5 C 1225.17,168.5 1238.83,168.5 1252.5,168.5C 1252.33,216.834 1252.5,265.168 1253,313.5C 1253.29,327.622 1256.62,340.955 1263,353.5C 1271.85,367.988 1284.85,375.322 1302,375.5C 1339,371.831 1364.67,352.831 1379,318.5C 1379.5,268.501 1379.67,218.501 1379.5,168.5C 1393.17,168.5 1406.83,168.5 1420.5,168.5C 1420.33,233.834 1420.5,299.168 1421,364.5C 1422.46,370.453 1426.29,373.786 1432.5,374.5C 1433.67,384.817 1433.83,395.151 1433,405.5C 1421.18,408.906 1409.68,408.073 1398.5,403C 1392.8,399.632 1388.96,394.799 1387,388.5C 1385.85,377.87 1385.19,367.203 1385,356.5C 1362.47,391.609 1330.14,409.609 1288,410.5C 1253.5,410.769 1230.5,394.769 1219,362.5C 1214.52,347.498 1212.19,332.165 1212,316.5C 1211.5,267.168 1211.33,217.834 1211.5,168.5 Z"/></g>
<g><path style="opacity:0.982" fill="#333333" d="M 123.5,258.5 C 154.937,265.746 186.604,272.579 218.5,279C 231.106,280.775 243.772,281.942 256.5,282.5C 257.381,310.47 258.381,338.47 259.5,366.5C 259.167,369.5 258.833,372.5 258.5,375.5C 200.1,342.47 139.433,313.97 76.5,290C 60.7129,282.94 45.0462,275.607 29.5,268C 17.6575,261.935 7.65746,253.769 -0.5,243.5C -0.5,241.167 -0.5,238.833 -0.5,236.5C 0.28913,236.217 0.955796,235.717 1.5,235C 7.83333,234.333 14.1667,234.333 20.5,235C 54.5576,244.045 88.891,251.878 123.5,258.5 Z"/></g>
<g><path style="opacity:0.984" fill="#333333" d="M 610.5,234.5 C 616.842,234.334 623.175,234.5 629.5,235C 631.478,237.497 631.978,240.331 631,243.5C 629.439,246.783 627.273,249.617 624.5,252C 617.357,258.073 609.69,263.406 601.5,268C 584.27,275.977 566.937,283.977 549.5,292C 504.218,310.314 459.551,329.981 415.5,351C 401.333,359.167 387.167,367.333 373,375.5C 373.07,344.152 373.904,312.818 375.5,281.5C 393.076,281.97 410.409,280.136 427.5,276C 469.925,267.413 512.259,258.413 554.5,249C 573.434,244.72 592.101,239.887 610.5,234.5 Z"/></g>
<g><path style="opacity:0.02" fill="#323332" d="M 123.5,258.5 C 123.897,257.475 124.563,257.308 125.5,258C 124.906,258.464 124.239,258.631 123.5,258.5 Z"/></g>
<g><path style="opacity:0.004" fill="#000000" d="M 130.5,258.5 C 131.833,259.167 131.833,259.167 130.5,258.5 Z"/></g>
<g><path style="opacity:0.97" fill="#333333" d="M 515.5,330.5 C 516.552,330.351 517.552,330.517 518.5,331C 511.478,413.43 470.811,472.43 396.5,508C 388.97,511.01 381.304,513.51 373.5,515.5C 373.147,506.109 373.647,496.775 375,487.5C 444.62,460.874 486.286,410.874 500,337.5C 505.209,335.051 510.376,332.717 515.5,330.5 Z"/></g>
<g><path style="opacity:0.004" fill="#000000" d="M 113.5,333.5 C 112.833,332.167 112.833,332.167 113.5,333.5 Z"/></g>
<g><path style="opacity:0.974" fill="#333333" d="M 113.5,333.5 C 121.247,336.203 128.913,339.203 136.5,342.5C 149.927,408.564 187.26,455.231 248.5,482.5C 251.148,493.057 253.148,503.724 254.5,514.5C 193.279,494.782 150.446,455.116 126,395.5C 118.34,375.528 114.173,354.861 113.5,333.5 Z"/></g>
<g><path style="opacity:0.943" fill="#333333" d="M 208.5,373.5 C 221.583,380.123 234.416,387.123 247,394.5C 247.667,396.833 247.667,399.167 247,401.5C 244.478,402.631 241.811,403.297 239,403.5C 230.489,402.785 221.989,401.952 213.5,401C 211.479,400.487 209.979,399.32 209,397.5C 208.5,389.507 208.334,381.507 208.5,373.5 Z"/></g>
<g><path style="opacity:0.944" fill="#333333" d="M 420.5,374.5 C 421.117,374.611 421.617,374.944 422,375.5C 422.667,382.5 422.667,389.5 422,396.5C 421.49,399.005 419.99,400.505 417.5,401C 406.173,402.655 394.84,403.155 383.5,402.5C 383.183,399.428 383.516,396.428 384.5,393.5C 396.909,387.632 408.909,381.299 420.5,374.5 Z"/></g>
<g><path style="opacity:0.004" fill="#000000" d="M 254.5,514.5 C 255.833,515.167 255.833,515.167 254.5,514.5 Z"/></g>
</svg>
